<svg xmlns="http://www.w3.org/2000/svg"
     width="1.70667in" height="1.70667in"
     viewBox="0 0 512 512">

  <!-- Gradient Docs -->
  <defs>
    <linearGradient id="docsBg" x1="0" y1="0" x2="512" y2="512" gradientUnits="userSpaceOnUse">
      <stop offset="0%" stop-color="#3B82F6"/>
      <stop offset="100%" stop-color="#1E40AF"/>
    </linearGradient>
  </defs>

  <!-- Background -->
  <rect x="0" y="0" width="512" height="512" rx="64" fill="url(#docsBg)"/>

  <!-- Icon -->
  <path id="docs"
        fill="#ffffff" stroke="#ffffff" stroke-width="1"
        d="M 169.00,103.00
           C 169.00,95.54 167.92,86.50 171.99,80.00
             176.77,72.38 184.50,70.10 193.00,70.00
             193.00,70.00 242.00,70.00 242.00,70.00
             242.00,70.00 320.00,70.00 320.00,70.00
             322.09,70.00 325.07,69.89 327.00,70.60
             331.16,72.13 338.41,81.35 342.01,85.00
             342.01,85.00 368.00,112.00 368.00,112.00
             371.99,115.99 385.17,129.79 387.43,134.00
             388.61,136.18 389.20,138.67 390.00,141.00
             390.00,141.00 391.00,138.00 391.00,138.00
             391.00,138.00 391.00,167.00 391.00,167.00
             391.00,167.00 390.00,184.00 390.00,184.00
             390.00,184.00 390.00,312.00 390.00,312.00
             390.00,312.00 390.00,333.00 390.00,333.00
             390.00,345.98 390.83,361.78 376.00,367.44
             370.46,369.55 362.95,369.00 357.00,369.00
             357.00,369.00 357.00,357.00 357.00,357.00
             361.33,357.00 367.29,357.62 370.98,355.26
             375.92,352.11 376.92,348.46 377.00,343.00
             377.00,343.00 377.00,307.00 377.00,307.00
             377.00,307.00 377.00,144.00 377.00,144.00
             377.00,144.00 339.00,144.00 339.00,144.00
             334.02,143.98 330.22,143.85 326.18,140.44
             321.33,136.34 320.08,131.04 320.00,125.00
             320.00,125.00 320.00,83.00 320.00,83.00
             320.00,83.00 195.00,83.00 195.00,83.00
             191.56,83.01 188.05,82.73 185.05,84.74
             180.65,87.68 177.62,98.42 181.60,102.40
             184.02,104.83 195.31,104.02 199.00,104.00
             199.00,104.00 215.00,103.00 215.00,103.00
             215.00,103.00 290.00,103.00 290.00,103.00
             293.22,103.01 298.05,102.76 300.63,104.85
             303.55,107.13 303.69,112.68 300.63,114.83
             298.52,116.24 294.45,116.00 292.00,116.00
             292.00,116.00 153.00,116.00 153.00,116.00
             147.85,116.01 143.32,115.90 139.10,119.42
             133.44,124.14 134.71,129.19 133.01,131.26
             131.42,133.20 125.48,133.67 123.00,134.00
             123.00,129.36 122.69,124.50 123.93,120.00
             129.55,99.46 152.56,103.00 169.00,103.00 Z
           M 333.00,92.00
           C 331.13,96.70 331.92,116.74 332.00,123.00
             332.03,125.07 331.99,127.90 333.17,129.69
             334.77,132.07 337.45,131.95 340.00,132.00
             340.00,132.00 369.00,132.00 369.00,132.00
             369.00,132.00 333.00,92.00 333.00,92.00 Z
           M 141.00,141.52
           C 141.00,141.52 187.00,141.00 187.00,141.00
             187.00,141.00 276.00,141.00 276.00,141.00
             287.19,141.02 289.23,146.00 296.28,154.00
             296.28,154.00 314.00,173.00 314.00,173.00
             314.00,173.00 328.00,188.00 328.00,188.00
             332.28,192.33 342.63,202.51 344.35,208.00
             345.11,210.41 345.00,213.47 345.00,216.00
             345.00,216.00 345.00,379.00 345.00,379.00
             344.82,394.05 338.32,405.34 322.00,405.99
             322.00,405.99 306.00,405.99 306.00,405.99
             306.00,405.99 150.00,405.99 150.00,405.99
             146.11,405.99 142.76,406.05 139.00,404.75
             121.43,398.71 122.87,377.86 123.00,363.00
             123.00,363.00 124.00,346.00 124.00,346.00
             124.00,346.00 124.00,196.00 124.00,196.00
             124.00,196.00 124.00,173.00 124.00,173.00
             124.00,157.78 122.94,146.49 141.00,141.52 Z
           M 304.24,413.00
           C 304.24,413.00 304.24,421.00 304.24,421.00
             303.34,436.12 293.40,442.93 279.00,443.00
             279.00,443.00 188.00,443.00 188.00,443.00
             188.00,443.00 109.00,443.00 109.00,443.00
             91.24,442.79 83.03,433.32 83.00,416.00
             83.00,416.00 83.00,249.00 83.00,249.00
             83.00,249.00 83.00,168.00 83.00,168.00
             83.03,147.63 95.25,138.20 115.00,143.00
             115.00,143.00 113.00,153.00 113.00,153.00
             110.26,153.03 107.65,152.97 105.00,153.80
             90.82,158.25 95.67,176.75 95.26,188.00
             95.26,188.00 96.00,211.00 96.00,211.00
             96.00,211.00 96.00,273.00 96.00,273.00
             96.00,273.00 96.00,386.00 96.00,386.00
             96.00,386.00 95.00,403.00 95.00,403.00
             94.99,411.58 93.00,425.39 103.00,429.26
             105.25,430.13 108.57,430.00 111.00,430.00
             111.00,430.00 186.00,430.00 186.00,430.00
             186.00,430.00 276.00,430.00 276.00,430.00
             289.00,429.98 292.96,426.10 293.00,413.00
             293.00,413.00 304.24,413.00 304.24,413.00 Z
           M 275.00,154.00
           C 275.00,154.00 232.00,154.00 232.00,154.00
             232.00,154.00 221.00,153.24 221.00,153.24
             221.00,153.24 204.00,154.00 204.00,154.00
             204.00,154.00 160.00,154.00 160.00,154.00
             153.04,153.91 140.25,150.41 136.74,159.04
             135.87,161.18 136.00,164.66 136.00,167.00
             136.00,167.00 136.00,320.00 136.00,320.00
             136.00,320.00 136.00,380.00 136.00,380.00
             136.16,391.65 141.40,393.98 152.00,394.00
             152.00,394.00 291.00,394.00 291.00,394.00
             291.00,394.00 317.00,394.00 317.00,394.00
             322.13,393.93 326.99,393.36 330.30,388.89
             333.12,385.09 332.99,380.49 333.00,376.00
             333.00,376.00 333.00,215.00 333.00,215.00
             333.00,215.00 297.00,215.00 297.00,215.00
             290.76,214.97 285.90,214.28 281.10,209.79
             276.34,205.33 275.08,200.27 275.00,194.00
             275.00,194.00 275.00,154.00 275.00,154.00 Z
           M 288.00,163.00
           C 286.15,167.67 286.99,183.12 287.00,189.00
             287.01,193.49 286.62,199.23 291.13,201.83
             293.37,203.11 296.48,202.99 299.00,203.00
             299.00,203.00 324.00,203.00 324.00,203.00
             321.00,196.66 314.84,192.02 310.04,187.00
             310.04,187.00 288.00,163.00 288.00,163.00 Z
           M 168.06,225.74
           C 173.36,224.42 181.34,225.00 187.00,225.00
             187.00,225.00 220.00,225.00 220.00,225.00
             222.31,225.00 225.77,224.80 227.77,226.02
             231.47,228.28 231.47,233.72 227.77,235.98
             225.77,237.20 222.31,237.00 220.00,237.00
             220.00,237.00 175.00,237.00 175.00,237.00
             172.55,237.00 168.48,237.24 166.43,235.83
             162.14,232.87 164.40,227.97 168.06,225.74 Z
           M 168.06,252.74
           C 168.06,252.74 209.00,252.00 209.00,252.00
             209.00,252.00 293.00,252.00 293.00,252.00
             295.62,252.00 299.50,251.78 301.75,253.17
             305.87,255.68 305.21,261.63 301.75,263.83
             299.51,265.22 295.58,265.00 293.00,265.00
             293.00,265.00 191.00,265.00 191.00,265.00
             187.05,265.00 170.63,265.44 168.06,264.40
             162.81,262.29 162.78,255.97 168.06,252.74 Z
           M 169.04,278.65
           C 169.04,278.65 210.00,278.00 210.00,278.00
             210.00,278.00 292.00,278.00 292.00,278.00
             295.18,278.01 299.11,277.71 301.75,279.74
             305.16,282.31 305.48,287.61 301.75,289.98
             299.78,291.21 296.27,291.00 294.00,291.00
             294.00,291.00 191.00,291.00 191.00,291.00
             187.05,291.00 170.63,291.44 168.06,290.40
             163.44,288.54 161.94,281.98 169.04,278.65 Z
           M 170.00,306.57
           C 170.00,306.57 211.00,306.00 211.00,306.00
             211.00,306.00 290.00,306.00 290.00,306.00
             293.46,306.01 299.70,305.95 302.51,308.14
             305.61,310.54 304.92,315.81 301.72,317.83
             299.51,319.22 295.58,319.00 293.00,319.00
             293.00,319.00 175.00,319.00 175.00,319.00
             172.69,319.00 169.23,319.20 167.23,317.98
             162.78,315.26 163.05,309.39 170.00,306.57 Z
           M 134.00,309.00
           C 134.00,309.00 133.00,309.00 133.00,309.00
             133.00,309.00 134.00,310.00 134.00,310.00
             134.00,310.00 134.00,309.00 134.00,309.00 Z
           M 132.00,314.00
           C 132.00,314.00 131.00,314.00 131.00,314.00
             131.00,314.00 132.00,315.00 132.00,315.00
             132.00,315.00 132.00,314.00 132.00,314.00 Z
           M 257.00,344.00
           C 248.26,348.40 240.59,347.00 231.00,347.00
             231.00,347.00 185.00,347.00 185.00,347.00
             179.08,347.00 162.03,349.43 164.33,339.04
             165.56,333.53 171.64,334.01 176.00,334.00
             176.00,334.00 234.00,334.00 234.00,334.00
             238.74,334.00 251.34,332.74 254.41,336.31
             255.87,338.02 256.42,341.75 257.00,344.00 Z
           M 132.00,392.00
           C 132.00,392.00 131.00,392.00 131.00,392.00
             131.00,392.00 132.00,393.00 132.00,393.00
             132.00,393.00 132.00,392.00 132.00,392.00 Z" />
</svg>