<svg xmlns="http://www.w3.org/2000/svg"
     width="1.70667in" height="1.70667in"
     viewBox="0 0 512 512">

  <!-- Gradient Drivers -->
  <defs>
    <linearGradient id="driversBg" x1="0" y1="0" x2="512" y2="512" gradientUnits="userSpaceOnUse">
      <stop offset="0%" stop-color="#F09A2A"/>
      <stop offset="100%" stop-color="#D97810"/>
    </linearGradient>
  </defs>

  <!-- Background -->
  <rect x="0" y="0" width="512" height="512" rx="64" fill="url(#driversBg)"/>

  <!-- Icon -->
    <path id="Selection"
        fill="#ffffff" stroke="#ffffff" stroke-width="1"
        d="M 236.00,73.21
           C 236.00,73.21 264.00,73.21 264.00,73.21
             285.43,73.03 313.88,80.86 333.00,90.42
             352.17,100.01 370.09,112.48 384.96,128.00
             431.42,176.50 447.59,246.88 428.28,311.00
             420.00,338.47 406.02,360.47 387.42,382.00
             373.98,397.57 352.56,412.75 334.00,421.74
             304.92,435.83 278.01,440.37 246.00,440.00
             235.27,439.87 218.55,436.52 208.00,433.87
             145.99,418.30 96.71,368.24 79.43,307.00
             73.63,286.45 72.97,270.06 73.00,249.00
             73.02,233.76 77.66,209.44 82.69,195.00
             99.88,145.73 137.50,105.04 186.00,85.45
             204.91,77.82 216.38,76.22 236.00,73.21 Z
           M 240.00,85.14
           C 222.83,87.76 209.39,89.94 193.00,96.45
             146.81,114.78 111.37,151.15 94.70,198.00
             72.83,259.46 87.88,329.82 133.16,376.91
             148.50,392.86 168.74,405.52 189.00,414.15
             203.64,420.39 226.10,426.81 242.00,427.00
             242.00,427.00 263.00,427.00 263.00,427.00
             287.01,426.96 314.06,418.04 335.00,406.69
             350.27,398.41 367.21,385.87 378.83,373.00
             428.15,318.40 438.22,240.02 403.78,175.00
             396.63,161.50 385.74,145.82 374.96,135.04
             359.55,119.63 340.98,107.28 321.00,98.72
             305.33,92.01 280.01,85.08 263.00,85.14
             263.00,85.14 240.00,85.14 240.00,85.14 Z
           M 244.00,110.21
           C 244.00,110.21 257.00,110.21 257.00,110.21
             299.99,110.07 342.39,132.00 368.35,166.00
             377.64,178.18 387.62,196.32 392.12,211.00
             395.36,221.61 397.22,230.18 383.00,232.52
             377.99,233.35 364.67,230.37 359.00,229.41
             359.00,229.41 306.00,219.43 306.00,219.43
             263.88,212.37 233.82,213.78 192.00,221.61
             192.00,221.61 141.00,231.00 141.00,231.00
             133.61,232.01 125.83,234.39 119.04,230.00
             112.31,225.64 114.26,220.43 115.87,214.00
             118.84,202.20 124.23,190.43 130.45,180.00
             149.74,147.65 178.87,125.62 215.00,115.43
             224.55,112.73 234.25,111.82 244.00,110.21 Z
           M 381.00,221.00
           C 382.14,214.71 377.78,206.79 375.28,201.00
             367.90,183.90 355.40,166.47 341.00,154.61
             332.35,147.50 322.14,140.13 312.00,135.32
             261.21,111.25 199.51,122.31 160.00,162.00
             148.43,173.62 138.81,187.80 132.60,203.00
             130.26,208.73 127.10,214.70 128.00,221.00
             128.00,221.00 170.00,212.80 170.00,212.80
             192.96,208.21 215.65,204.52 239.00,202.91
             239.00,202.91 249.00,202.00 249.00,202.00
             293.45,201.48 337.53,212.82 381.00,221.00 Z
           M 251.00,230.43
           C 267.84,228.72 284.05,240.13 289.25,256.00
             291.12,261.69 291.06,265.14 291.00,271.00
             290.93,276.29 290.02,281.23 287.62,286.00
             281.49,298.23 270.08,304.16 257.00,305.71
             251.74,306.34 245.90,305.10 241.00,303.17
             221.67,295.55 213.02,273.25 220.09,254.00
             225.02,240.59 237.44,232.64 251.00,230.43 Z
           M 255.00,242.73
           C 227.06,243.79 219.77,280.22 244.00,291.10
             248.19,292.98 251.50,293.10 256.00,292.99
             271.01,292.62 279.32,281.29 278.99,267.00
             278.90,263.49 278.48,260.21 276.95,257.00
             272.57,247.78 264.76,243.60 255.00,242.73 Z
           M 224.00,251.00
           C 224.00,251.00 223.00,251.00 223.00,251.00
             223.00,251.00 224.00,252.00 224.00,252.00
             224.00,252.00 224.00,251.00 224.00,251.00 Z
           M 122.00,263.55
           C 127.85,262.83 143.86,265.24 150.00,266.65
             187.05,275.14 213.45,298.44 226.94,334.00
             231.93,347.16 234.11,361.05 235.09,375.00
             235.09,375.00 235.82,382.00 235.82,382.00
             235.82,389.07 234.25,397.37 226.00,398.77
             219.21,399.92 199.60,392.33 193.00,389.22
             160.79,374.01 136.79,349.69 122.58,317.00
             117.93,306.31 114.11,295.53 112.08,284.00
             110.29,273.76 110.48,267.17 122.00,263.55 Z
           M 377.00,263.26
           C 379.30,263.15 380.63,262.95 383.00,263.26
             388.02,263.40 393.52,265.25 395.98,270.02
             397.15,272.29 397.04,275.48 396.99,278.00
             396.78,287.32 392.88,300.24 389.58,309.00
             376.24,344.36 352.62,370.63 319.00,387.89
             310.65,392.18 299.17,396.26 290.00,398.35
             284.24,399.66 278.88,400.45 275.01,394.81
             272.19,390.71 272.94,381.07 273.00,376.00
             273.07,370.14 274.43,361.81 275.60,356.00
             281.66,325.88 297.11,296.87 324.00,280.46
             341.56,269.75 357.06,266.44 377.00,263.26 Z
           M 383.00,275.00
           C 383.00,275.00 382.00,275.00 382.00,275.00
             382.00,275.00 383.00,276.00 383.00,276.00
             383.00,276.00 383.00,275.00 383.00,275.00 Z
           M 124.00,276.00
           C 124.01,286.88 127.21,296.93 131.20,307.00
             140.39,330.20 156.49,351.92 177.00,366.28
             187.44,373.59 199.02,379.04 211.00,383.31
             217.05,385.46 224.60,389.00 223.83,379.00
             223.83,379.00 222.98,361.96 222.98,361.96
             222.98,361.96 220.92,356.00 220.92,356.00
             218.09,346.69 216.95,340.28 212.69,331.00
             208.31,321.43 200.47,309.39 192.96,302.09
             175.67,285.27 147.89,276.02 124.00,276.00 Z
           M 384.00,276.19
           C 381.83,276.35 381.20,276.40 379.00,276.19
             365.59,276.22 345.73,282.87 334.00,289.31
             299.12,308.46 285.00,348.23 285.00,386.00
             294.50,385.79 305.53,380.48 314.00,376.25
             341.47,362.51 362.00,340.89 374.77,313.00
             378.63,304.56 385.81,284.95 384.00,276.19 Z
           M 279.00,279.00
           C 279.00,279.00 278.00,279.00 278.00,279.00
             278.00,279.00 279.00,280.00 279.00,280.00
             279.00,280.00 279.00,279.00 279.00,279.00 Z" />
</svg>