<svg xmlns="http://www.w3.org/2000/svg"
     width="7.11111in" height="7.11111in"
     viewBox="0 0 512 512">

  <!-- Gradient -->
  <defs>
    <linearGradient id="fleetBg" x1="0" y1="0" x2="512" y2="512" gradientUnits="userSpaceOnUse">
      <stop offset="0%" stop-color="#63B32E"/>
      <stop offset="100%" stop-color="#4C9223"/>
    </linearGradient>
  </defs>

  <!-- Background -->
  <rect x="0" y="0" width="512" height="512" rx="64" fill="url(#fleetBg)"/>

  <!-- Icon -->
   <path id="car"
        fill="#ffffff" stroke="#ffffff" stroke-width="1"
        d="M 290.00,349.00
           C 285.98,348.67 274.57,347.99 276.84,341.22
             278.42,336.53 285.53,338.56 289.00,338.83
             296.95,339.44 297.38,335.04 300.25,329.00
             303.60,321.98 305.69,314.94 312.09,309.93
             318.81,304.66 325.94,304.70 334.00,303.84
             334.00,303.84 360.00,302.00 360.00,302.00
             366.69,302.08 393.71,304.32 399.00,306.48
             402.55,307.93 405.27,310.17 407.81,313.02
             413.36,319.23 418.19,334.61 421.11,337.54
             425.53,341.98 437.71,334.22 440.02,341.22
             442.29,348.07 431.13,348.66 427.00,349.00
             430.15,356.06 433.64,360.06 435.33,368.00
             435.33,368.00 436.00,411.00 436.00,411.00
             436.00,413.52 436.11,416.60 435.35,419.00
             431.89,430.00 420.00,428.01 411.00,428.00
             406.11,427.99 402.29,428.23 398.53,424.47
             394.53,420.47 395.00,416.17 395.00,411.00
             395.00,411.00 322.00,411.00 322.00,411.00
             322.00,416.70 322.52,420.52 317.89,424.77
             314.31,428.07 311.53,427.98 307.00,428.00
             298.11,428.04 284.77,430.11 281.57,419.00
             280.97,416.91 281.01,414.18 281.00,412.00
             281.00,412.00 281.67,368.00 281.67,368.00
             283.77,358.09 286.06,357.08 290.00,349.00 Z
           M 413.00,346.00
           C 411.47,340.64 406.86,331.20 404.25,326.00
             402.51,322.55 401.22,319.40 397.90,317.15
             393.50,314.17 380.52,313.15 375.00,312.99
             375.00,312.99 362.00,312.00 362.00,312.00
             353.41,311.96 344.51,312.29 336.00,313.42
             330.59,314.15 322.58,314.50 318.19,317.85
             315.05,320.25 313.87,323.57 312.22,327.00
             309.73,332.19 305.51,340.69 304.00,346.00
             304.00,346.00 324.00,348.92 324.00,348.92
             344.18,350.76 364.81,350.47 385.00,348.92
             385.00,348.92 393.00,348.92 393.00,348.92
             393.00,348.92 413.00,346.00 413.00,346.00 Z
           M 405.00,418.00
           C 405.00,418.00 419.00,418.00 419.00,418.00
             421.35,417.95 424.19,418.15 425.40,415.69
             426.28,413.89 426.00,406.39 426.00,404.00
             426.00,404.00 426.00,377.00 426.00,377.00
             425.99,370.82 423.85,357.91 416.83,355.77
             414.45,355.04 406.78,356.90 404.00,357.39
             397.43,358.54 390.66,358.93 384.00,359.00
             384.00,359.00 369.00,360.00 369.00,360.00
             369.00,360.00 327.00,358.91 327.00,358.91
             327.00,358.91 309.00,356.59 309.00,356.59
             306.89,356.23 302.08,355.19 300.17,355.77
             293.01,357.94 291.01,370.69 291.00,377.00
             291.00,377.00 291.00,409.00 291.00,409.00
             291.00,411.30 290.62,415.41 292.60,416.98
             294.75,418.68 308.54,418.00 312.00,418.00
             312.00,414.13 310.88,404.46 314.31,402.17
             316.41,400.78 320.52,401.00 323.00,401.00
             323.00,401.00 385.00,401.00 385.00,401.00
             398.74,401.00 404.79,398.96 405.00,410.00
             405.00,410.00 405.00,418.00 405.00,418.00 Z
           M 303.31,372.02
           C 307.80,370.33 320.51,372.79 324.85,374.88
             328.83,376.79 328.30,381.25 325.69,382.98
             324.08,384.04 321.82,383.92 320.00,383.70
             320.00,383.70 312.00,381.88 312.00,381.88
             307.26,380.76 296.95,378.98 303.31,372.02 Z
           M 407.00,371.44
           C 410.53,371.03 417.23,371.19 415.34,376.87
             413.93,381.15 400.23,383.32 396.00,383.69
             388.34,384.37 388.29,378.06 390.60,375.85
             392.52,374.01 403.86,372.02 407.00,371.44 Z
           M 338.30,372.74
           C 343.43,371.34 360.61,372.00 367.00,372.00
             369.58,372.00 376.68,371.71 378.70,372.74
             379.65,373.22 380.40,373.95 380.39,375.08
             380.37,378.54 374.23,378.00 372.00,378.00
             372.00,378.00 343.00,378.00 343.00,378.00
             339.63,377.93 333.45,376.93 338.30,372.74 Z
           M 340.62,386.02
           C 345.08,384.11 364.96,384.89 371.00,385.00
             379.83,385.17 380.13,390.86 370.00,391.00
             370.00,391.00 346.00,391.00 346.00,391.00
             342.57,390.93 337.68,390.64 340.62,386.02 Z" />
  <path id="van"
        fill="#ffffff" stroke="#ffffff" stroke-width="1"
        d="M 92.00,408.90
           C 89.54,409.00 85.26,409.13 83.00,408.90
             74.04,406.55 70.11,398.46 70.00,390.00
             70.00,390.00 70.00,316.00 70.00,316.00
             70.02,300.86 75.44,294.02 91.00,294.00
             91.00,294.00 196.00,294.00 196.00,294.00
             212.40,294.03 214.43,300.59 222.67,313.00
             222.67,313.00 240.92,341.00 240.92,341.00
             246.51,348.53 254.58,352.14 257.39,360.00
             259.64,366.30 259.01,378.00 259.00,385.00
             258.99,394.01 258.46,403.50 249.00,407.64
             243.65,409.97 240.42,408.02 237.51,410.60
             234.76,413.03 235.45,417.75 228.00,423.61
             219.31,430.44 206.10,429.18 198.33,421.53
             193.53,416.82 193.55,411.98 190.59,410.02
             188.70,408.78 185.22,409.00 183.00,408.90
             183.00,408.90 136.00,408.90 136.00,408.90
             132.00,434.41 96.00,434.41 92.00,408.90 Z
           M 135.00,399.00
           C 135.00,399.00 185.00,399.00 185.00,399.00
             196.58,398.98 191.85,396.53 199.30,389.33
             203.67,385.10 209.92,382.67 216.00,383.10
             222.57,383.55 227.60,387.11 231.78,392.00
             233.11,393.56 235.13,397.06 236.49,397.98
             237.96,398.97 240.28,399.05 242.00,398.89
             249.39,398.19 248.99,392.82 249.00,387.00
             249.00,387.00 249.00,372.00 249.00,372.00
             248.98,357.89 244.38,360.85 235.32,350.00
             235.32,350.00 215.58,320.00 215.58,320.00
             209.28,309.94 207.67,304.02 195.00,304.00
             195.00,304.00 133.00,304.00 133.00,304.00
             133.00,304.00 98.00,304.00 98.00,304.00
             94.13,304.00 86.25,303.27 83.23,305.60
             79.64,308.37 80.01,312.96 80.00,317.00
             80.00,317.00 80.00,387.00 80.00,387.00
             80.02,398.58 82.00,398.99 93.00,399.00
             99.05,378.47 128.09,377.34 135.00,399.00 Z
           M 226.00,358.00
           C 226.00,358.00 195.00,358.00 195.00,358.00
             190.24,357.94 186.71,357.63 183.28,353.87
             178.19,348.30 179.95,331.59 180.00,324.00
             180.02,321.65 179.81,318.39 181.60,316.60
             183.53,314.67 187.46,315.01 190.00,315.00
             190.00,315.00 190.00,348.00 190.00,348.00
             190.00,348.00 216.00,348.00 216.00,348.00
             218.53,348.02 221.53,347.82 223.57,349.60
             226.02,351.73 225.92,355.05 226.00,358.00 Z
           M 110.00,393.43
           C 93.89,399.83 102.23,422.31 118.00,417.35
             127.75,414.29 129.66,401.75 121.89,395.43
             118.37,392.56 114.22,392.79 110.00,393.43 Z
           M 211.00,393.42
           C 197.06,398.43 200.32,416.71 213.00,417.89
             227.63,419.25 231.41,400.58 220.91,394.57
             217.65,392.71 214.55,392.91 211.00,393.42 Z" />
  <path id="truck"
        fill="#ffffff" stroke="#ffffff" stroke-width="1"
        d="M 125.00,246.00
           C 112.80,246.00 99.20,248.55 95.82,233.00
             95.16,229.96 95.04,228.08 95.00,225.00
             95.00,225.00 96.00,203.00 96.00,203.00
             96.00,203.00 95.12,187.00 95.12,187.00
             95.12,187.00 96.00,170.00 96.00,170.00
             96.00,170.00 95.00,155.00 95.00,155.00
             95.00,155.00 95.96,135.00 95.96,135.00
             95.96,135.00 95.05,127.00 95.05,127.00
             95.05,127.00 95.05,107.00 95.05,107.00
             95.20,90.62 101.76,84.03 118.00,84.00
             118.00,84.00 253.00,84.00 253.00,84.00
             265.67,84.00 288.49,80.50 293.35,96.00
             294.11,98.41 294.00,101.47 294.00,104.00
             294.00,104.00 294.00,118.00 294.00,118.00
             294.00,118.00 339.00,118.00 339.00,118.00
             345.64,118.01 350.62,118.62 355.83,123.34
             360.27,127.37 367.94,141.20 371.28,147.00
             376.06,155.27 387.87,172.85 390.07,181.00
             391.07,184.67 390.99,187.28 391.00,191.00
             391.00,191.00 391.00,230.00 391.00,230.00
             390.97,235.04 390.81,238.93 386.79,242.61
             382.31,246.70 377.52,245.90 372.00,246.00
             361.01,246.21 365.97,251.73 359.20,260.96
             353.81,268.31 344.03,272.53 335.00,271.91
             326.66,271.34 319.59,267.56 314.39,261.00
             309.31,254.59 310.05,249.18 306.70,247.02
             304.79,245.79 301.24,246.00 299.00,246.00
             299.00,246.00 188.00,246.00 188.00,246.00
             176.99,246.21 182.39,251.17 175.21,260.99
             169.84,268.32 160.01,272.46 151.00,271.91
             136.88,271.04 125.69,260.17 125.00,246.00 Z
           M 284.00,236.00
           C 284.00,236.00 284.00,127.00 284.00,127.00
             284.00,127.00 284.00,104.00 284.00,104.00
             283.94,101.08 283.95,98.62 281.69,96.43
             278.84,93.67 274.65,94.01 271.00,94.00
             271.00,94.00 144.00,94.00 144.00,94.00
             144.00,94.00 117.00,94.00 117.00,94.00
             113.21,94.06 110.15,94.16 107.43,97.23
             104.67,100.33 105.01,104.15 105.00,108.00
             105.00,108.00 105.00,205.00 105.00,205.00
             105.00,205.00 105.00,223.00 105.00,223.00
             105.01,226.89 104.66,232.40 108.39,234.83
             110.79,236.38 117.04,236.05 120.00,236.00
             129.29,235.84 124.77,232.41 133.09,224.09
             139.41,217.78 145.29,215.80 154.00,216.01
             161.23,216.19 166.86,218.94 171.96,224.04
             180.98,233.07 175.43,235.97 188.00,236.00
             188.00,236.00 284.00,236.00 284.00,236.00 Z
           M 310.00,236.00
           C 315.15,218.36 336.68,209.70 352.00,220.64
             364.39,229.48 358.84,235.79 370.00,236.00
             382.27,236.22 380.88,233.92 381.00,223.00
             381.00,223.00 381.96,212.00 381.96,212.00
             381.96,212.00 380.37,183.00 380.37,183.00
             378.90,177.86 365.82,157.03 362.20,151.00
             358.92,145.53 352.17,132.19 346.96,129.45
             343.84,127.81 340.41,128.01 337.00,128.00
             337.00,128.00 294.00,128.00 294.00,128.00
             294.00,128.00 294.00,236.00 294.00,236.00
             294.00,236.00 310.00,236.00 310.00,236.00 Z
           M 363.00,183.00
           C 351.09,184.57 339.01,184.00 327.00,184.00
             323.09,184.00 314.23,184.56 311.06,182.83
             306.94,180.57 307.03,177.11 307.00,173.00
             307.00,173.00 307.00,150.00 307.00,150.00
             307.04,146.95 307.02,142.94 309.51,140.74
             311.84,138.68 316.06,139.00 319.00,139.21
             319.00,139.21 339.96,139.21 339.96,139.21
             344.48,140.74 345.56,145.25 343.96,147.40
             342.50,149.37 338.22,149.00 336.00,149.00
             336.00,149.00 317.00,149.00 317.00,149.00
             317.00,149.00 317.00,174.00 317.00,174.00
             317.00,174.00 348.00,174.00 348.00,174.00
             348.00,174.00 360.28,174.99 360.28,174.99
             360.28,174.99 363.00,183.00 363.00,183.00 Z
           M 148.00,226.34
           C 126.01,232.27 133.33,265.69 156.00,261.67
             171.00,259.02 175.81,240.42 164.90,230.21
             159.85,225.49 154.44,225.59 148.00,226.34 Z
           M 332.00,226.34
           C 311.99,231.74 315.84,260.50 335.00,261.90
             353.83,263.28 362.22,239.43 346.98,228.65
             342.47,225.46 337.23,225.73 332.00,226.34 Z" />
</svg>