<svg xmlns="http://www.w3.org/2000/svg" viewBox="0 0 512 512"><defs><linearGradient id="pinkGradient" x1="0%" y1="100%" x2="100%" y2="0%"><stop offset="0%" stop-color="#b1006b"/><stop offset="45%" stop-color="#d41473"/><stop offset="100%" stop-color="#ff3f8f"/></linearGradient></defs><rect width="512" height="512" fill="url(#pinkGradient)"/><path id="fuec" fill="#ffffff" stroke="#ffffff" stroke-width="1" d="M 94.00,157.00
           C 94.00,157.00 94.00,359.00 94.00,359.00
             94.00,359.00 94.00,402.00 94.00,402.00
             94.07,414.82 100.72,419.98 113.00,420.00
             113.00,420.00 254.00,420.00 254.00,420.00
             254.00,420.00 332.00,420.00 332.00,420.00
             339.30,419.90 346.26,416.56 348.43,409.00
             349.82,404.14 347.34,391.19 356.89,393.47
             361.83,394.65 361.04,401.11 361.00,405.00
             360.81,421.13 351.23,430.97 335.00,431.00
             335.00,431.00 142.00,431.00 142.00,431.00
             142.00,431.00 119.00,431.00 119.00,431.00
             103.86,431.00 88.95,432.52 83.60,414.00
             82.28,409.46 82.01,404.70 82.00,400.00
             82.00,400.00 82.00,165.00 82.00,165.00
             82.01,160.34 82.42,153.30 84.13,149.00
             87.11,141.52 98.06,131.94 104.00,126.00
             104.00,126.00 130.00,100.00 130.00,100.00
             140.42,89.58 145.32,81.03 161.00,81.00
             161.00,81.00 314.00,81.00 314.00,81.00
             314.00,81.00 337.00,81.00 337.00,81.00
             347.32,81.14 357.09,87.82 359.91,98.00
             361.00,101.93 360.99,105.00 361.00,109.00
             361.00,109.00 361.00,169.00 361.00,169.00
             361.00,171.62 361.22,175.50 359.83,177.77
             356.92,182.52 351.54,180.50 349.74,175.98
             348.87,173.80 349.00,170.37 349.00,168.00
             349.00,168.00 349.00,110.00 349.00,110.00
             348.94,96.96 342.59,92.02 330.00,92.00
             330.00,92.00 159.00,92.00 159.00,92.00
             159.00,92.00 159.00,135.00 159.00,135.00
             158.91,141.97 157.45,148.06 151.91,152.74
             147.42,156.53 142.60,156.97 137.00,157.00
             137.00,157.00 94.00,157.00 94.00,157.00 Z
           M 147.00,101.00
           C 147.00,101.00 125.00,122.00 125.00,122.00
             125.00,122.00 103.00,145.00 103.00,145.00
             103.00,145.00 137.00,145.00 137.00,145.00
             141.27,144.92 144.47,144.47 146.26,139.98
             147.31,137.35 147.00,130.15 147.00,127.00
             147.00,127.00 147.00,101.00 147.00,101.00 Z
           M 200.00,145.00
           C 200.00,145.00 204.00,145.00 204.00,145.00
             206.35,145.00 209.80,144.81 211.85,146.02
             215.61,148.25 215.74,153.53 211.85,155.83
             207.79,158.23 194.44,158.22 189.85,150.96
             188.08,148.15 188.04,145.20 188.00,142.00
             187.88,132.05 185.70,118.94 198.00,115.61
             200.61,114.91 203.32,115.00 206.00,115.00
             206.00,115.00 300.00,115.00 300.00,115.00
             302.64,115.00 305.45,114.89 308.00,115.64
             319.57,119.00 318.11,130.43 318.00,140.00
             317.86,151.84 314.27,156.94 302.00,157.00
             302.00,157.00 239.00,157.00 239.00,157.00
             236.21,156.99 232.66,157.21 230.19,155.69
             226.53,153.36 226.31,148.29 230.19,146.02
             232.20,144.81 235.65,145.00 238.00,145.00
             238.00,145.00 306.00,145.00 306.00,145.00
             306.00,145.00 306.00,127.00 306.00,127.00
             306.00,127.00 200.00,127.00 200.00,127.00
             200.00,127.00 200.00,145.00 200.00,145.00 Z
           M 319.00,336.00
           C 311.23,334.99 305.07,330.48 302.39,323.00
             300.96,319.04 301.32,314.51 298.57,311.10
             293.91,305.32 287.58,306.51 282.53,296.00
             280.51,291.79 280.44,284.39 281.96,280.00
             283.04,276.89 285.57,273.27 285.66,270.00
             285.75,266.44 283.14,263.32 281.97,260.00
             280.94,257.09 280.93,254.05 281.02,251.00
             281.20,244.55 284.35,238.97 289.58,235.19
             293.05,232.68 296.55,232.08 299.26,227.96
             301.68,224.28 300.46,220.82 303.19,215.01
             308.29,204.13 316.78,204.02 327.00,204.00
             340.02,203.97 335.90,199.96 345.01,195.19
             349.11,193.04 352.49,192.89 357.00,193.02
             367.77,193.31 370.30,200.15 376.00,202.98
             379.06,204.49 385.43,203.96 389.00,204.00
             398.44,204.13 404.63,208.09 408.24,217.00
             410.61,222.87 409.22,225.18 412.31,228.90
             414.99,232.11 418.76,233.33 421.91,235.79
             427.19,239.92 430.21,247.34 429.68,254.00
             428.94,263.13 424.74,265.80 425.31,271.00
             425.81,275.49 430.42,280.49 429.67,289.00
             429.10,295.47 426.15,301.16 420.82,304.94
             417.90,307.00 414.01,308.32 411.89,311.21
             409.80,314.06 409.94,318.30 408.61,322.00
             405.74,330.03 400.27,334.50 392.00,336.00
             392.00,336.00 392.00,379.00 392.00,379.00
             391.94,383.65 391.54,388.44 387.47,391.47
             376.40,399.70 363.94,383.98 356.42,382.33
             353.43,381.67 350.38,384.14 348.00,385.83
             340.27,390.58 323.89,400.98 319.57,385.83
             318.92,383.73 319.00,380.40 319.00,378.00
             319.00,378.00 319.00,336.00 319.00,336.00 Z
           M 125.11,204.74
           C 125.11,204.74 167.00,204.00 167.00,204.00
             167.00,204.00 252.00,204.00 252.00,204.00
             254.74,204.01 258.37,203.78 260.75,205.31
             264.52,207.74 264.46,213.30 259.89,215.26
             257.86,216.14 254.25,216.00 252.00,215.86
             252.00,215.86 149.00,215.86 149.00,215.86
             149.00,215.86 125.11,215.86 125.11,215.86
             119.88,213.96 120.03,207.96 125.11,204.74 Z
           M 352.00,205.60
           C 345.92,208.78 343.26,213.80 336.00,215.47
             327.96,217.33 323.15,213.49 318.09,216.31
             310.52,220.53 315.49,226.92 308.53,235.99
             302.86,243.36 296.64,243.19 294.02,248.05
             290.18,255.19 297.92,261.56 297.92,270.00
             297.92,278.42 291.52,282.73 293.31,290.00
             295.07,297.12 302.10,295.84 308.61,304.01
             314.82,311.81 311.22,316.86 315.57,321.47
             322.23,328.54 328.03,320.97 339.00,325.48
             346.47,328.55 347.98,334.10 354.00,334.84
             363.55,336.02 364.47,325.18 378.00,324.05
             382.99,323.34 386.66,325.90 390.99,324.05
             400.95,320.47 394.58,311.53 404.02,301.53
             408.50,296.77 416.12,296.29 417.59,289.00
             418.63,283.86 415.52,281.10 413.99,277.00
             412.95,274.23 412.88,270.94 413.04,268.00
             413.51,259.54 420.15,256.14 417.15,249.04
             414.63,243.10 408.47,243.72 403.31,237.67
             394.93,227.85 400.50,218.09 390.00,215.68
             387.21,214.74 383.89,215.75 381.00,215.68
             376.22,216.18 372.09,215.08 368.04,212.52
             361.25,208.25 361.60,203.59 352.00,205.60 Z
           M 351.00,226.26
           C 353.36,226.14 354.56,225.95 357.00,226.26
             363.85,226.48 371.06,228.27 377.00,231.76
             408.70,250.37 405.95,295.95 372.00,310.42
             366.82,312.63 359.66,314.22 354.00,313.82
             342.35,312.99 332.43,309.39 324.07,300.91
             305.23,281.77 308.33,249.17 330.28,233.75
             337.07,228.98 343.07,227.62 351.00,226.26 Z
           M 352.00,238.29
           C 346.04,239.20 342.07,239.99 337.00,243.63
             311.90,261.68 323.32,299.59 354.00,301.82
             389.03,304.36 400.49,253.12 367.00,240.27
             362.40,238.51 356.88,237.87 352.00,238.29 Z
           M 124.15,241.02
           C 128.80,239.36 134.09,240.00 139.00,240.00
             139.00,240.00 164.00,240.00 164.00,240.00
             164.00,240.00 252.00,240.00 252.00,240.00
             254.58,240.00 258.51,239.78 260.75,241.17
             264.24,243.39 264.42,248.74 260.75,250.98
             258.78,252.20 255.30,252.00 253.00,251.86
             253.00,251.86 150.00,251.86 150.00,251.86
             150.00,251.86 125.11,251.86 125.11,251.86
             119.64,249.89 120.51,244.25 124.15,241.02 Z
           M 126.02,276.57
           C 126.02,276.57 168.00,276.00 168.00,276.00
             168.00,276.00 250.00,276.00 250.00,276.00
             253.21,276.01 258.91,275.83 261.49,277.93
             264.25,280.19 264.16,284.75 260.77,286.83
             258.51,288.22 254.61,288.00 252.00,287.86
             252.00,287.86 148.00,287.86 148.00,287.86
             148.00,287.86 125.11,287.86 125.11,287.86
             120.44,286.14 118.88,279.60 126.02,276.57 Z
           M 125.11,312.74
           C 125.11,312.74 167.00,312.00 167.00,312.00
             167.00,312.00 252.00,312.00 252.00,312.00
             254.74,312.01 258.37,311.78 260.76,313.31
             264.27,315.59 264.41,320.74 260.76,322.98
             258.78,324.20 255.30,324.00 253.00,323.86
             253.00,323.86 150.00,323.86 150.00,323.86
             150.00,323.86 125.11,323.86 125.11,323.86
             119.88,321.96 120.03,315.96 125.11,312.74 Z
           M 380.00,335.00
           C 369.60,337.70 368.15,346.38 357.00,346.96
             341.49,347.77 343.33,337.85 330.00,335.00
             330.00,335.00 330.00,382.00 330.00,382.00
             337.10,378.58 349.95,368.37 357.00,369.38
             362.29,370.13 374.04,379.09 380.00,382.00
             380.00,382.00 380.00,335.00 380.00,335.00 Z
           M 125.11,365.56
           C 130.51,364.56 141.05,365.00 147.00,365.00
             147.00,365.00 186.00,365.00 186.00,365.00
             188.67,365.00 192.52,364.79 194.85,366.17
             198.25,368.18 199.08,373.39 195.71,375.69
             193.46,377.21 189.64,376.99 187.00,377.00
             187.00,377.00 132.00,377.00 132.00,377.00
             129.65,377.00 126.20,377.19 124.15,375.98
             119.75,373.38 120.24,367.84 125.11,365.56 Z"/></svg>