<svg xmlns="http://www.w3.org/2000/svg"
     width="135.45mm" height="135.45mm"
     viewBox="0 0 512 512">

  <!-- Gradient Purple -->
  <defs>
    <linearGradient id="servicesBg" x1="0" y1="0" x2="512" y2="512" gradientUnits="userSpaceOnUse">
      <stop offset="0%" stop-color="#8B5CF6"/>
      <stop offset="100%" stop-color="#5B21B6"/>
    </linearGradient>
  </defs>

  <!-- Background -->
  <rect x="0" y="0" width="512" height="512" rx="64" fill="url(#servicesBg)"/>

  <!-- Icon -->
   <path id="services"
        fill="#ffffff" stroke="#ffffff" stroke-width="1"
        d="M 354.00,56.16
           C 354.00,56.16 360.00,56.16 360.00,56.16
             360.00,56.16 378.00,56.16 378.00,56.16
             407.45,56.05 438.21,79.26 449.41,106.00
             457.06,124.25 456.03,131.12 456.00,150.00
             455.99,158.42 455.52,158.16 453.47,166.00
             446.49,192.66 427.41,208.09 408.79,226.79
             408.79,226.79 382.21,253.35 382.21,253.35
             379.86,255.67 373.83,262.47 370.95,263.05
             366.77,263.90 360.06,255.23 357.20,252.42
             357.20,252.42 322.79,218.12 322.79,218.12
             308.36,203.95 294.42,190.79 287.82,171.00
             286.06,165.70 284.07,157.54 284.00,152.00
             284.00,152.00 284.00,133.00 284.00,133.00
             284.04,110.52 300.37,84.99 318.00,71.92
             329.28,63.57 340.45,59.47 354.00,56.16 Z
           M 370.00,80.57
           C 360.09,81.07 353.17,81.82 344.00,86.03
             316.37,98.72 302.82,129.93 310.60,159.00
             315.15,175.97 327.06,186.16 338.95,198.05
             338.95,198.05 361.28,220.42 361.28,220.42
             363.25,222.37 367.25,227.11 370.05,227.14
             373.19,227.18 377.64,221.79 379.79,219.60
             379.79,219.60 402.42,197.00 402.42,197.00
             417.76,181.39 430.72,169.81 431.00,146.00
             431.07,139.54 431.13,131.20 429.37,125.00
             423.68,104.94 407.32,87.98 387.00,82.60
             382.94,81.53 374.37,80.79 370.00,80.57 Z
           M 362.00,102.53
           C 375.33,100.36 388.84,103.72 398.56,113.44
             415.68,130.55 413.52,159.89 394.00,174.24
             389.69,177.41 383.22,180.14 378.00,181.32
             354.05,186.73 330.28,167.35 330.00,143.00
             329.76,121.73 342.08,108.24 362.00,102.53 Z
           M 370.00,127.58
           C 350.10,129.06 351.32,155.97 370.00,155.97
             379.11,155.97 383.99,151.06 383.99,142.00
             383.99,139.02 383.93,136.62 382.26,134.02
             379.22,129.24 375.31,127.97 370.00,127.58 Z
           M 175.00,431.00
           C 175.00,431.00 306.00,431.00 306.00,431.00
             313.59,430.99 320.02,430.15 327.00,426.95
             359.95,411.86 367.34,369.15 341.39,344.00
             326.01,329.11 309.86,329.00 290.00,329.00
             290.00,329.00 263.00,329.00 263.00,329.00
             258.65,328.99 252.14,328.56 248.00,327.37
             230.33,322.29 216.03,304.36 216.00,286.00
             216.00,286.00 216.00,276.00 216.00,276.00
             216.08,269.88 217.30,266.51 219.89,261.00
             227.34,245.15 244.47,234.21 262.00,234.00
             262.00,234.00 279.00,234.00 279.00,234.00
             279.00,234.00 309.00,234.00 309.00,234.00
             309.00,234.00 309.00,260.00 309.00,260.00
             309.00,260.00 272.00,260.00 272.00,260.00
             263.86,260.00 258.03,258.76 251.01,263.79
             237.78,273.24 237.39,290.75 251.01,300.15
             256.18,303.72 259.99,303.99 266.00,304.00
             266.00,304.00 301.00,304.00 301.00,304.00
             301.00,304.00 313.00,304.91 313.00,304.91
             313.00,304.91 322.00,305.47 322.00,305.47
             338.86,308.63 357.05,320.36 367.24,334.00
             373.41,342.26 379.97,355.78 381.84,366.00
             381.84,366.00 381.84,388.00 381.84,388.00
             381.99,396.55 381.51,396.09 379.02,404.00
             370.23,431.98 343.23,455.95 313.00,456.00
             313.00,456.00 175.00,456.00 175.00,456.00
             175.00,456.00 175.00,431.00 175.00,431.00 Z
           M 115.00,304.30
           C 116.99,304.20 117.95,304.04 120.00,304.30
             120.00,304.30 134.00,305.78 134.00,305.78
             155.13,311.60 171.47,326.11 178.49,347.00
             180.53,353.06 181.92,357.52 182.00,364.00
             182.34,393.39 172.38,403.99 152.58,423.65
             152.58,423.65 127.58,448.65 127.58,448.65
             125.15,451.06 121.03,456.55 117.26,455.43
             115.07,454.78 110.47,449.70 108.65,447.88
             108.65,447.88 90.65,429.88 90.65,429.88
             78.86,418.15 65.40,406.92 59.31,391.00
             55.04,379.84 55.95,372.59 56.00,361.00
             56.10,340.96 70.25,322.15 87.00,312.31
             90.79,310.09 100.76,306.07 105.00,305.33
             105.00,305.33 115.00,304.30 115.00,304.30 Z
           M 119.00,421.00
           C 119.00,421.00 146.92,392.96 146.92,392.96
             151.43,387.69 154.37,382.89 155.56,376.00
             156.82,368.75 156.59,359.90 153.79,353.00
             141.20,321.93 97.70,321.76 83.80,352.00
             81.69,356.60 81.06,360.99 81.00,366.00
             80.83,380.93 83.55,386.18 93.92,396.96
             99.77,403.05 112.74,416.56 119.00,421.00 Z" />
</svg>