<svg xmlns="http://www.w3.org/2000/svg"
     width="1.70667in" height="1.70667in"
     viewBox="0 0 512 512">

  <!-- Gradient Templates -->
  <defs>
    <linearGradient id="templatesBg" x1="0" y1="0" x2="512" y2="512" gradientUnits="userSpaceOnUse">
      <stop offset="0%" stop-color="#23B7B1"/>
      <stop offset="100%" stop-color="#168E8F"/>
    </linearGradient>
  </defs>

  <!-- Background -->
  <rect x="0" y="0" width="512" height="512" rx="64" fill="url(#templatesBg)"/>

  <!-- Icon -->
  <path id="templates"
        fill="#ffffff" stroke="#ffffff" stroke-width="1"
        d="M 333.00,117.00
           C 333.00,117.00 333.00,101.00 333.00,101.00
             333.16,92.59 336.07,94.05 342.72,95.21
             342.72,95.21 348.73,95.21 348.73,95.21
             362.45,98.52 376.45,103.65 384.45,116.00
             393.76,130.36 394.00,145.57 394.00,162.00
             394.00,162.00 394.00,204.00 394.00,204.00
             394.15,216.86 399.30,229.38 411.00,235.82
             416.67,238.94 421.84,238.90 428.00,240.00
             428.00,240.00 428.00,254.00 428.00,254.00
             427.99,255.82 428.15,258.92 426.98,260.40
             425.49,262.28 421.34,262.01 419.00,262.52
             414.98,263.38 410.33,265.39 407.00,267.79
             397.07,274.95 394.02,286.37 394.00,298.00
             394.00,298.00 394.00,320.00 394.00,320.00
             394.00,348.97 398.12,389.63 364.00,401.91
             353.08,405.84 343.31,405.00 332.00,405.00
             332.00,405.00 332.00,393.00 332.00,393.00
             332.00,391.01 331.77,387.19 333.02,385.60
             335.25,382.79 341.47,384.92 348.00,383.24
             354.83,381.48 359.97,377.88 363.90,372.00
             368.56,365.02 369.96,356.26 370.00,348.00
             370.00,348.00 370.00,302.00 370.00,302.00
             370.01,296.63 371.23,286.11 372.71,281.00
             373.81,277.19 373.85,274.92 378.00,274.00
             376.63,263.46 390.57,254.65 399.00,251.00
             390.94,246.35 384.41,242.85 378.79,235.00
             372.27,225.90 370.13,214.02 370.00,203.00
             370.00,203.00 370.00,153.00 370.00,153.00
             369.98,138.14 365.35,124.44 350.00,119.10
             344.00,117.01 339.20,117.00 333.00,117.00 Z
           M 99.00,235.00
           C 105.65,234.35 110.57,227.80 113.12,222.00
             118.49,209.84 117.00,192.35 117.00,179.00
             117.00,152.68 113.03,118.79 140.00,103.34
             144.05,101.01 147.48,99.54 152.00,98.38
             162.72,95.62 167.31,96.00 178.00,96.00
             178.00,96.00 178.00,117.00 178.00,117.00
             171.80,117.00 167.00,117.01 161.00,119.10
             146.12,124.28 141.02,137.45 141.00,152.00
             141.00,152.00 141.00,200.00 141.00,200.00
             140.98,212.53 138.88,225.73 131.24,236.00
             125.61,243.57 119.87,246.47 112.00,251.00
             140.94,262.00 141.00,287.95 141.00,314.00
             141.00,314.00 141.00,350.00 141.00,350.00
             141.16,363.27 146.22,375.64 159.00,381.48
             164.48,383.99 172.88,384.50 179.00,385.00
             179.00,385.00 179.00,406.00 179.00,406.00
             169.75,406.00 159.98,405.77 151.00,403.25
             146.86,402.09 142.59,400.28 139.00,397.90
             113.78,381.14 117.00,349.33 117.00,323.00
             117.00,305.17 120.21,283.54 105.98,270.09
             102.54,266.83 99.55,264.84 95.00,263.44
             89.95,261.89 87.13,262.00 82.00,262.00
             82.00,262.00 82.00,239.00 82.00,239.00
             86.00,239.00 97.44,239.25 99.00,235.00 Z
           M 175.00,334.00
           C 175.60,326.66 180.64,308.82 182.86,301.00
             184.25,296.09 186.47,287.06 188.99,283.00
             192.00,278.15 208.75,262.45 213.96,257.00
             213.96,257.00 263.99,205.00 263.99,205.00
             263.99,205.00 273.04,195.00 273.04,195.00
             273.04,195.00 286.72,181.00 286.72,181.00
             291.77,175.27 297.91,167.67 306.00,166.42
             315.62,164.93 323.93,176.94 331.00,182.00
             332.25,187.90 336.63,190.18 334.61,199.00
             333.42,204.18 328.05,209.00 324.58,213.00
             324.58,213.00 313.04,225.00 313.04,225.00
             313.04,225.00 296.00,243.00 296.00,243.00
             296.00,243.00 285.96,254.00 285.96,254.00
             285.96,254.00 246.01,295.00 246.01,295.00
             240.39,300.77 230.19,313.18 224.00,317.30
             220.67,319.52 209.43,322.86 205.00,324.33
             196.89,327.04 182.52,332.84 175.00,334.00 Z
           M 307.00,177.82
           C 303.49,179.36 293.21,188.04 293.20,192.00
             293.18,195.24 303.15,205.33 305.72,207.94
             307.21,209.46 308.64,211.29 311.04,210.66
             312.93,210.17 315.61,207.38 317.00,206.00
             319.69,203.32 323.30,199.97 323.72,196.00
             324.43,189.34 313.19,178.22 307.00,177.82 Z
           M 336.00,191.00
           C 337.31,194.30 337.31,196.70 336.00,200.00
             336.00,200.00 336.00,191.00 336.00,191.00 Z
           M 286.00,200.00
           C 278.92,203.35 264.42,219.53 258.72,226.00
             258.72,226.00 242.01,243.00 242.01,243.00
             242.01,243.00 226.00,260.00 226.00,260.00
             226.00,260.00 212.00,274.00 212.00,274.00
             210.37,275.67 207.20,278.51 207.20,281.00
             207.19,283.19 209.51,285.44 210.85,287.00
             214.96,291.78 219.46,295.76 223.00,301.00
             230.95,298.67 236.34,289.73 242.00,284.00
             242.00,284.00 274.96,250.00 274.96,250.00
             274.96,250.00 284.01,240.00 284.01,240.00
             284.01,240.00 296.98,227.00 296.98,227.00
             298.62,225.31 301.62,222.51 301.66,220.00
             301.71,217.61 298.89,214.75 297.42,213.00
             297.42,213.00 286.00,200.00 286.00,200.00 Z
           M 379.00,277.00
           C 379.00,277.00 378.00,277.00 378.00,277.00
             378.00,277.00 379.00,278.00 379.00,278.00
             379.00,278.00 379.00,277.00 379.00,277.00 Z
           M 376.00,280.00
           C 376.00,280.00 375.00,280.00 375.00,280.00
             375.00,280.00 376.00,281.00 376.00,281.00
             376.00,281.00 376.00,280.00 376.00,280.00 Z
           M 198.00,289.00
           C 193.26,296.74 192.00,308.08 192.00,317.00
             192.00,317.00 217.00,310.00 217.00,310.00
             214.59,304.91 202.76,292.42 198.00,289.00 Z" />
</svg>